<?xml version="1.0" encoding="UTF-8" standalone="no"?>
<!-- Created with Inkscape (http://www.inkscape.org/) -->

<svg
   xmlns:dc="http://purl.org/dc/elements/1.1/"
   xmlns:cc="http://creativecommons.org/ns#"
   xmlns:rdf="http://www.w3.org/1999/02/22-rdf-syntax-ns#"
   xmlns:svg="http://www.w3.org/2000/svg"
   xmlns="http://www.w3.org/2000/svg"
   xmlns:sodipodi="http://sodipodi.sourceforge.net/DTD/sodipodi-0.dtd"
   xmlns:inkscape="http://www.inkscape.org/namespaces/inkscape"
   width="128"
   height="90"
   viewBox="0 0 33.866666 23.812501"
   version="1.1"
   id="svg8"
   inkscape:version="0.92.3 (2405546, 2018-03-11)"
   sodipodi:docname="upload-arrange-show.svg">
  <defs
     id="defs2" />
  <sodipodi:namedview
     id="base"
     pagecolor="#ffffff"
     bordercolor="#666666"
     borderopacity="1.0"
     inkscape:pageopacity="0.0"
     inkscape:pageshadow="2"
     inkscape:zoom="5.6568542"
     inkscape:cx="57.998513"
     inkscape:cy="65.144221"
     inkscape:document-units="mm"
     inkscape:current-layer="layer1"
     showgrid="false"
     units="px"
     inkscape:pagecheckerboard="true"
     inkscape:snap-global="false"
     inkscape:window-width="1920"
     inkscape:window-height="1029"
     inkscape:window-x="0"
     inkscape:window-y="0"
     inkscape:window-maximized="1" />
  <metadata
     id="metadata5">
    <rdf:RDF>
      <cc:Work
         rdf:about="">
        <dc:format>image/svg+xml</dc:format>
        <dc:type
           rdf:resource="http://purl.org/dc/dcmitype/StillImage" />
        <dc:title></dc:title>
      </cc:Work>
    </rdf:RDF>
  </metadata>
  <g
     inkscape:label="Layer 1"
     inkscape:groupmode="layer"
     id="layer1"
     transform="translate(0,-273.18748)">
    <path
       style="fill:none;stroke:#ffffff;stroke-width:0.26458332px;stroke-linecap:butt;stroke-linejoin:miter;stroke-opacity:1"
       d="m 1.9271076,295.57068 c 1.051145,1.2311 5.9927265,0.29236 6.42711,-0.19277 0.3909713,0.51758 5.4346994,1.46696 6.3428394,0.13102 0.701717,-1.03224 0.8785,-2.96082 -1.077479,-3.59245 -1.142022,-0.36879 -2.252318,0.20019 -2.252318,0.20019 0,0 0.387245,-3.95967 -2.9323896,-3.99476 -3.3196343,-0.0351 -3.4945648,3.93838 -3.4945648,3.93838 0,0 -0.9806527,-0.64592 -2.123624,-0.29418 -1.0321085,0.31762 -1.4055285,1.20147 -1.4998188,1.8863 -0.094291,0.68482 0.1816254,1.41621 0.6102448,1.91821 z"
       id="path815"
       inkscape:connector-curvature="0"
       sodipodi:nodetypes="ccssczcsssc" />
    <path
       style="fill:#ffff00;stroke:none;stroke-width:0.26458332px;stroke-linecap:butt;stroke-linejoin:miter;stroke-opacity:1"
       d="M 10.000417,291.69791 H 9.2503898 v 3.23685 H 7.4085701 v -3.23685 H 6.6842929 l 1.6361963,-2.40451 z"
       id="path817"
       inkscape:connector-curvature="0"
       sodipodi:nodetypes="cccccccc" />
    <rect
       style="opacity:1;fill:#ffffff;fill-opacity:1;stroke:none;stroke-width:0.70599997;stroke-linecap:round;stroke-miterlimit:4;stroke-dasharray:none;stroke-dashoffset:0;stroke-opacity:1"
       id="rect819"
       width="8.2070694"
       height="1.0691144"
       x="14.547096"
       y="284.70499" />
    <rect
       y="284.70499"
       x="12.534636"
       height="1.0691221"
       width="1.5093454"
       id="rect821"
       style="opacity:1;fill:#ffffff;fill-opacity:1;stroke:none;stroke-width:0.70599997;stroke-linecap:round;stroke-miterlimit:4;stroke-dasharray:none;stroke-dashoffset:0;stroke-opacity:1" />
    <rect
       y="282.69247"
       x="14.547096"
       height="1.0691144"
       width="8.2070694"
       id="rect823"
       style="opacity:1;fill:#ffff00;fill-opacity:1;stroke:none;stroke-width:0.70599997;stroke-linecap:round;stroke-miterlimit:4;stroke-dasharray:none;stroke-dashoffset:0;stroke-opacity:1" />
    <rect
       style="opacity:1;fill:#ffff00;fill-opacity:1;stroke:none;stroke-width:0.70599997;stroke-linecap:round;stroke-miterlimit:4;stroke-dasharray:none;stroke-dashoffset:0;stroke-opacity:1"
       id="rect825"
       width="1.5093454"
       height="1.0691221"
       x="12.534636"
       y="282.69247" />
    <rect
       y="280.67999"
       x="14.547096"
       height="1.0691144"
       width="8.2070694"
       id="rect827"
       style="opacity:1;fill:#ffffff;fill-opacity:1;stroke:none;stroke-width:0.70599997;stroke-linecap:round;stroke-miterlimit:4;stroke-dasharray:none;stroke-dashoffset:0;stroke-opacity:1" />
    <rect
       style="opacity:1;fill:#ffffff;fill-opacity:1;stroke:none;stroke-width:0.70599997;stroke-linecap:round;stroke-miterlimit:4;stroke-dasharray:none;stroke-dashoffset:0;stroke-opacity:1"
       id="rect829"
       width="1.5093454"
       height="1.0691221"
       x="12.534636"
       y="280.67999" />
    <rect
       style="opacity:1;fill:#ffffff;fill-opacity:1;stroke:none;stroke-width:0.70599997;stroke-linecap:round;stroke-miterlimit:4;stroke-dasharray:none;stroke-dashoffset:0;stroke-opacity:1"
       id="rect831"
       width="8.2070694"
       height="1.0691144"
       x="14.547096"
       y="278.66751" />
    <rect
       y="278.66751"
       x="12.534636"
       height="1.0691221"
       width="1.5093454"
       id="rect833"
       style="opacity:1;fill:#ffffff;fill-opacity:1;stroke:none;stroke-width:0.70599997;stroke-linecap:round;stroke-miterlimit:4;stroke-dasharray:none;stroke-dashoffset:0;stroke-opacity:1" />
    <rect
       style="opacity:1;fill:#ffff00;fill-opacity:1;stroke:none;stroke-width:0.70599997;stroke-linecap:round;stroke-miterlimit:4;stroke-dasharray:none;stroke-dashoffset:0;stroke-opacity:1"
       id="rect835"
       width="8.2070694"
       height="1.0691144"
       x="14.547096"
       y="276.655" />
    <rect
       y="276.655"
       x="12.534636"
       height="1.0691221"
       width="1.5093454"
       id="rect837"
       style="opacity:1;fill:#ffff00;fill-opacity:1;stroke:none;stroke-width:0.70599997;stroke-linecap:round;stroke-miterlimit:4;stroke-dasharray:none;stroke-dashoffset:0;stroke-opacity:1" />
    <rect
       y="274.64252"
       x="14.547096"
       height="1.0691144"
       width="8.2070694"
       id="rect839"
       style="opacity:1;fill:#ffffff;fill-opacity:1;stroke:none;stroke-width:0.70599997;stroke-linecap:round;stroke-miterlimit:4;stroke-dasharray:none;stroke-dashoffset:0;stroke-opacity:1" />
    <rect
       style="opacity:1;fill:#ffffff;fill-opacity:1;stroke:none;stroke-width:0.70599997;stroke-linecap:round;stroke-miterlimit:4;stroke-dasharray:none;stroke-dashoffset:0;stroke-opacity:1"
       id="rect841"
       width="1.5093454"
       height="1.0691221"
       x="12.534636"
       y="274.64252" />
    <path
       style="opacity:1;fill:#ffffff;fill-opacity:1;stroke:none;stroke-width:2.66834641;stroke-linecap:round;stroke-miterlimit:4;stroke-dasharray:none;stroke-dashoffset:0;stroke-opacity:1"
       d="M 76 50.75 L 76 88.5 L 126.25 88.5 L 126.25 50.75 L 76 50.75 z M 79.105469 53.398438 L 83.144531 53.398438 L 83.144531 59.101562 L 79.105469 59.101562 L 79.105469 53.398438 z M 87.105469 53.398438 L 91.144531 53.398438 L 91.144531 59.101562 L 87.105469 59.101562 L 87.105469 53.398438 z M 95.105469 53.398438 L 99.144531 53.398438 L 99.144531 59.101562 L 95.105469 59.101562 L 95.105469 53.398438 z M 103.10547 53.398438 L 107.14453 53.398438 L 107.14453 59.101562 L 103.10547 59.101562 L 103.10547 53.398438 z M 111.10547 53.398438 L 115.14453 53.398438 L 115.14453 59.101562 L 111.10547 59.101562 L 111.10547 53.398438 z M 119.10547 53.398438 L 123.14453 53.398438 L 123.14453 59.101562 L 119.10547 59.101562 L 119.10547 53.398438 z M 79.105469 80.148438 L 83.144531 80.148438 L 83.144531 85.853516 L 79.105469 85.853516 L 79.105469 80.148438 z M 87.105469 80.148438 L 91.144531 80.148438 L 91.144531 85.853516 L 87.105469 85.853516 L 87.105469 80.148438 z M 95.105469 80.148438 L 99.144531 80.148438 L 99.144531 85.853516 L 95.105469 85.853516 L 95.105469 80.148438 z M 103.10547 80.148438 L 107.14453 80.148438 L 107.14453 85.853516 L 103.10547 85.853516 L 103.10547 80.148438 z M 111.10547 80.148438 L 115.14453 80.148438 L 115.14453 85.853516 L 111.10547 85.853516 L 111.10547 80.148438 z M 119.10547 80.148438 L 123.14453 80.148438 L 123.14453 85.853516 L 119.10547 85.853516 L 119.10547 80.148438 z "
       transform="matrix(0.26458333,0,0,0.26458333,0,273.18748)"
       id="rect843" />
  </g>
</svg>
